<?xml version="1.0" standalone="no"?><!DOCTYPE svg PUBLIC "-//W3C//DTD SVG 1.1//EN" "http://www.w3.org/Graphics/SVG/1.1/DTD/svg11.dtd"><svg t="1492073509382" class="icon" style="" viewBox="0 0 3196 1024" version="1.1" xmlns="http://www.w3.org/2000/svg" p-id="1488" xmlns:xlink="http://www.w3.org/1999/xlink" width="399.5" height="128"><defs><style type="text/css"></style></defs><path d="M1298.708031 490.643337l393.53851-490.536687h533.303338l-351.945009 490.590012h-298.620007l-0.10665 533.250013H1095.166501v-533.250013h203.594855z m340.320159 533.250013L2353.369907 0.10665h842.748321l-394.60501 490.590012h-223.965006l-351.945008 533.250013h-586.575014z m-650.565016 0H71.219826c-65.216477 0-92.572202-93.585377-51.298651-149.310004L668.566491 0.053325h885.514971l-309.125032 383.940009H944.256748l-75.561527 106.650003h119.714628v533.250013z m255.960006-895.860022h-490.590012l-554.580014 746.550018h661.230017l-0.159975-277.449981-236.496381 0.159975 249.401031-351.945009h277.343332l93.852002-117.315003z" fill="#2c2c2c" p-id="1489"></path></svg>